<svg width="32" height="32" viewBox="0 0 32 32" fill="none" xmlns="http://www.w3.org/2000/svg">
<path d="M16 21.6471C12.8812 21.6471 10.3529 19.1188 10.3529 16C10.3529 12.8812 12.8812 10.3529 16 10.3529C19.1188 10.3529 21.6471 12.8812 21.6471 16C21.6471 19.1188 19.1188 21.6471 16 21.6471Z" fill="#AE9AFF"/>
<path d="M5.10545 18.2821C3.4868 18.5623 2.3773 20.0973 2.99864 21.5912C3.86612 23.6768 5.25007 25.5349 7.04426 26.987C9.60982 29.0631 12.8457 30.1725 16.1701 30.1156C19.4944 30.0586 22.689 28.839 25.1793 26.6761C26.9206 25.1636 28.2377 23.2591 29.0306 21.1451C29.5985 19.6309 28.435 18.1348 26.8074 17.9102C25.1798 17.6857 23.7184 18.8487 22.9145 20.2562C22.4787 21.019 21.913 21.7111 21.2353 22.2998C19.8065 23.5408 17.9736 24.2405 16.0663 24.2732C14.1589 24.3058 12.3023 23.6694 10.8303 22.4781C10.132 21.913 9.54205 21.2407 9.07939 20.4932C8.22593 19.1142 6.7241 18.0019 5.10545 18.2821Z" fill="#AE9AFF"/>
<path d="M30.0085 17.4048C30.0806 16.8399 30.1177 16.2644 30.1177 15.6805C30.1177 8.05998 23.797 1.88235 16 1.88235C8.20304 1.88235 1.88235 8.05998 1.88235 15.6805C1.88235 16.4299 1.94348 17.1653 2.06114 17.8824C2.70959 17.0147 3.72166 16.3954 4.81483 16.207C5.9976 16.0031 7.07255 16.2835 7.98143 16.8076C7.92774 16.4394 7.89995 16.0631 7.89995 15.6805C7.89995 11.3082 11.5265 7.76375 16 7.76375C20.4735 7.76375 24.1 11.3082 24.1 15.6805C24.1 15.9687 24.0842 16.2534 24.0536 16.5337C24.9433 15.9788 26.0077 15.6617 27.1973 15.8252C28.2962 15.9761 29.3294 16.5602 30.0085 17.4048Z" fill="#5429FF"/>
</svg>
